<svg width="842" height="578" viewBox="0 0 842 578" fill="none" xmlns="http://www.w3.org/2000/svg">
<path d="M28.5862 319.466H128.24V400.081H28.5862V319.466Z" fill="#3F3D56"/>
<path d="M11.409 319.466H102.567V400.081H11.409V319.466Z" fill="#FFD078"/>
<path d="M11.1604 400.403H102.938V319.144H11.1604V400.403ZM102.257 399.759H11.7188V319.788H102.257V399.759Z" fill="#3F3D56"/>
<path d="M42.6629 319.466V339.571L48.3678 336.285L52.7707 339.378L58.0418 336.285L62.8789 339.571V319.466H42.6629Z" fill="#3F3D56"/>
<path d="M62.8791 359.032H83.9011V360.321H62.8791V359.032Z" fill="#3F3D56"/>
<path d="M62.8791 367.538H83.9011V368.827H62.8791V367.538Z" fill="#3F3D56"/>
<path d="M62.8791 376.045H83.9011V377.333H62.8791V376.045Z" fill="#3F3D56"/>
<path d="M22.695 357.292H56.7396V379.395H22.695V357.292Z" fill="#FEFEFE"/>
<path d="M22.3848 379.653H57.0496V356.906H22.3848V379.653ZM56.4294 379.009H23.0049V357.55H56.4294V379.009Z" fill="#3F3D56"/>
<path d="M125.513 414.838H98.9091C97.6689 414.838 96.4288 415.418 95.6847 416.449L82.2279 434.041C80.0575 436.876 81.98 441.001 85.4526 441.001H125.513V414.838V414.838Z" fill="#F27B79"/>
<path d="M85.453 441.323H125.823V414.516H98.9095C97.5452 414.516 96.2432 415.16 95.437 416.255L81.9803 433.848C80.9261 435.265 80.6781 437.134 81.4843 438.745C82.1664 440.292 83.7167 441.323 85.453 441.323ZM125.203 440.678H85.453C83.9647 440.678 82.6624 439.841 81.9803 438.423C81.3601 437.005 81.4843 435.394 82.4145 434.234L95.8709 416.642C96.6151 415.675 97.6695 415.16 98.8477 415.16H125.141V440.678H125.203Z" fill="#3F3D56"/>
<path d="M396.568 304.258C396.568 306.642 394.708 308.511 392.475 308.511H379.081C376.786 308.511 374.988 306.578 374.988 304.258C374.988 301.873 376.848 300.005 379.081 300.005H392.475C394.708 299.94 396.568 301.873 396.568 304.258Z" fill="#3F3D56"/>
<path d="M346.028 309.284H362.523V333.578H346.028V309.284Z" fill="#3F3D56"/>
<path d="M388.506 489.46V347.433C388.506 335.382 379.081 325.588 367.484 325.588H306.712C295.116 325.588 285.69 335.382 285.69 347.433V478.247C285.69 489.331 277.071 498.288 266.405 498.288H249.351C238.685 498.288 230.065 489.331 230.065 478.247V421.088C230.065 421.088 230.5 403.818 240.732 401.305H135.683C135.683 401.305 92.0263 438.294 82.8485 497.902V504.475H388.506V489.46Z" fill="#FFD078"/>
<path d="M82.5383 504.797H388.816V347.433C388.816 335.189 379.267 325.265 367.484 325.265H306.712C294.93 325.265 285.38 335.189 285.38 347.433V478.247C285.38 489.138 276.884 497.966 266.404 497.966H249.351C238.871 497.966 230.375 489.138 230.375 478.247V421.088C230.375 420.895 230.872 404.076 240.856 401.627L243.46 400.983H135.621L135.559 401.047C135.435 401.112 124.458 410.52 112.552 427.017C101.514 442.289 87.3754 466.97 82.6624 497.837L82.5383 504.797ZM388.196 504.152H83.1584V497.902C87.8713 467.228 101.948 442.612 112.924 427.468C124.272 411.745 134.752 402.53 135.807 401.627H238.871C230.251 405.558 229.817 420.38 229.755 421.088V478.247C229.755 489.46 238.561 498.61 249.351 498.61H266.404C277.195 498.61 286 489.46 286 478.247V347.433C286 335.576 295.302 325.91 306.712 325.91H367.484C378.895 325.91 388.196 335.576 388.196 347.433V504.152Z" fill="#3F3D56"/>
<path d="M347.082 325.523H354.524V468.323H347.082V325.523Z" fill="#3F3D56"/>
<path d="M-1.52588e-05 397.825H141.884V405.172H-1.52588e-05V397.825Z" fill="#3F3D56"/>
<path d="M159.434 504.861H258.033V525.933H159.434V504.861Z" fill="#3F3D56"/>
<path d="M123.9 567.433C99.1045 567.433 79.0036 543.689 79.0036 514.398C79.0036 485.108 99.1045 461.364 123.9 461.364C148.696 461.364 168.797 485.108 168.797 514.398C168.797 543.689 148.696 567.433 123.9 567.433Z" fill="#2F2E41"/>
<path d="M116.335 546.554C100.204 546.554 87.127 531.09 87.127 512.014C87.127 492.938 100.204 477.474 116.335 477.474C132.466 477.474 145.543 492.938 145.543 512.014C145.543 531.09 132.466 546.554 116.335 546.554Z" fill="#FEFEFE"/>
<path d="M116.335 546.876C132.644 546.876 145.853 531.217 145.853 512.014C145.853 492.811 132.582 477.152 116.335 477.152C100.088 477.152 86.8171 492.811 86.8171 512.014C86.8171 531.217 100.026 546.876 116.335 546.876ZM116.335 477.796C132.272 477.796 145.233 493.133 145.233 512.014C145.233 530.895 132.272 546.232 116.335 546.232C100.398 546.232 87.4372 530.895 87.4372 512.014C87.4372 493.133 100.398 477.796 116.335 477.796Z" fill="#3F3D56"/>
<path d="M131.776 512.207C131.776 519.876 128.303 526.707 117.203 526.707C110.692 526.707 108.273 519.876 108.273 512.207C108.273 504.539 110.754 498.288 117.203 498.288C128.303 498.288 131.776 504.475 131.776 512.207Z" fill="#3F3D56"/>
<path d="M116.459 526.127C109.952 526.127 104.677 519.895 104.677 512.207C104.677 504.52 109.952 498.288 116.459 498.288C122.966 498.288 128.242 504.52 128.242 512.207C128.242 519.895 122.966 526.127 116.459 526.127Z" fill="#FEFEFE"/>
<path d="M116.459 526.384C123.094 526.384 128.552 520.005 128.552 512.143C128.552 504.281 123.156 497.902 116.459 497.902C109.762 497.902 104.367 504.281 104.367 512.143C104.367 520.005 109.824 526.384 116.459 526.384ZM116.459 498.61C122.784 498.61 127.931 504.732 127.931 512.207C127.931 519.682 122.784 525.804 116.459 525.804C110.134 525.804 104.987 519.682 104.987 512.207C104.987 504.732 110.134 498.61 116.459 498.61Z" fill="#3F3D56"/>
<path d="M376.848 567.433C352.052 567.433 331.951 543.689 331.951 514.398C331.951 485.108 352.052 461.364 376.848 461.364C401.644 461.364 421.745 485.108 421.745 514.398C421.745 543.689 401.644 567.433 376.848 567.433Z" fill="#2F2E41"/>
<path d="M369.282 546.554C353.151 546.554 340.075 531.09 340.075 512.014C340.075 492.938 353.151 477.474 369.282 477.474C385.413 477.474 398.49 492.938 398.49 512.014C398.49 531.09 385.413 546.554 369.282 546.554Z" fill="#FEFEFE"/>
<path d="M369.283 546.876C385.592 546.876 398.801 531.217 398.801 512.014C398.801 492.811 385.53 477.152 369.283 477.152C353.035 477.152 339.765 492.811 339.765 512.014C339.765 531.217 352.973 546.876 369.283 546.876ZM369.283 477.796C385.22 477.796 398.18 493.133 398.18 512.014C398.18 530.895 385.22 546.232 369.283 546.232C353.346 546.232 340.385 530.895 340.385 512.014C340.385 493.133 353.346 477.796 369.283 477.796Z" fill="#3F3D56"/>
<path d="M384.724 512.207C384.724 519.876 381.251 526.127 370.151 526.127C363.64 526.127 361.221 519.876 361.221 512.207C361.221 504.539 363.702 498.288 370.151 498.288C381.251 498.288 384.724 504.475 384.724 512.207Z" fill="#3F3D56"/>
<path d="M369.407 526.127C362.9 526.127 357.625 519.895 357.625 512.207C357.625 504.52 362.9 498.288 369.407 498.288C375.914 498.288 381.189 504.52 381.189 512.207C381.189 519.895 375.914 526.127 369.407 526.127Z" fill="#FEFEFE"/>
<path d="M369.407 526.384C376.042 526.384 381.499 520.005 381.499 512.143C381.499 504.281 376.104 497.902 369.407 497.902C362.709 497.902 357.314 504.281 357.314 512.143C357.314 520.005 362.771 526.384 369.407 526.384ZM369.407 498.61C375.732 498.61 380.879 504.732 380.879 512.207C380.879 519.682 375.732 525.804 369.407 525.804C363.082 525.804 357.935 519.682 357.935 512.207C357.935 504.732 363.144 498.61 369.407 498.61Z" fill="#3F3D56"/>
<path d="M41.3626 498.095H47.0678C47.812 491.973 52.8347 487.269 58.9119 487.269H185.665V512.143H58.9119C53.1448 512.143 48.3079 507.89 47.1917 502.219H41.3626V498.095V498.095Z" fill="#3F3D56"/>
<path d="M63.8726 504.474C63.8726 504.474 55.9972 438.874 129.73 421.024C156.333 414.58 217.415 410.391 203.71 504.474H63.8726Z" fill="#FFD078"/>
<path d="M63.5627 504.797H203.896L203.959 504.539C209.044 469.548 204.268 444.674 189.758 430.755C172.022 413.678 144.427 417.158 129.606 420.766C112.738 424.826 98.7857 431.786 88.0576 441.387C79.4999 449.056 72.9888 458.464 68.772 469.354C61.5786 487.849 63.439 504.346 63.501 504.539L63.5627 504.797ZM203.4 504.152H64.1211C63.9351 501.897 62.7568 486.56 69.3921 469.548C75.9654 452.664 91.7784 430.561 129.73 421.346C144.427 417.802 171.774 414.322 189.324 431.206C203.71 444.996 208.423 469.548 203.4 504.152Z" fill="#3F3D56"/>
<path d="M233.786 405.172H141.326C131.714 405.172 123.901 397.052 123.901 387.064C123.901 376.495 132.582 368.183 142.69 369.02L234.84 376.624C241.972 377.204 247.491 383.391 247.491 390.866C247.491 398.727 241.351 405.172 233.786 405.172Z" fill="#3F3D56"/>
<path d="M328.541 497.193H434.209C434.209 497.193 432.473 481.018 421.993 466.326C399.048 434.428 351.361 438.81 334.494 474.51C331.455 480.825 329.347 488.3 328.541 497.193Z" fill="#FFD078"/>
<path d="M328.169 497.515H434.52L434.457 497.128C434.457 496.935 432.597 480.696 422.179 466.132C411.327 450.989 393.964 442.998 375.732 444.738C357.625 446.478 342.121 457.562 334.122 474.381C330.959 481.147 328.913 488.751 328.169 497.128V497.515ZM433.837 496.871H328.913C329.657 488.751 331.641 481.276 334.742 474.703C342.618 458.077 357.934 447.122 375.856 445.447C393.839 443.707 411.017 451.633 421.745 466.584C431.171 479.794 433.465 494.422 433.837 496.871Z" fill="#3F3D56"/>
<path d="M63.1286 508.728H334.928V500.221H434.085V492.489H334.742C330.711 492.489 327.486 495.904 327.486 500.028V500.995H63.1286V508.728Z" fill="#3F3D56"/>
<path d="M253.816 550.421H271.986V542.688H256.359L221.384 514.978L216.919 521.1L253.816 550.421Z" fill="#3F3D56"/>
<path d="M345.47 317.339H368.104C369.469 317.339 370.833 317.146 372.073 316.824C379.266 314.955 384.6 308.189 384.6 300.134C384.6 295.365 382.739 291.112 379.763 288.019C377.654 285.828 375.05 284.281 372.073 283.508C370.771 283.186 369.469 282.992 368.042 282.992H364.756C353.407 282.992 342.555 288.856 336.664 298.974C336.354 299.489 336.044 300.069 335.734 300.649C331.951 308.253 337.222 317.339 345.47 317.339Z" fill="#FFD078"/>
<path d="M345.47 317.661H368.104C369.469 317.661 370.833 317.468 372.197 317.146C379.701 315.213 384.972 308.253 384.972 300.133C384.972 295.429 383.235 291.047 380.011 287.761C377.84 285.505 375.112 283.894 372.197 283.121C370.833 282.799 369.469 282.606 368.104 282.606H364.818C353.16 282.606 342.307 288.792 336.478 298.78C336.168 299.36 335.858 299.876 335.548 300.456C333.688 304.064 333.75 308.382 335.796 311.926C337.904 315.535 341.501 317.661 345.47 317.661ZM368.104 283.314C369.407 283.314 370.771 283.508 372.011 283.83C374.864 284.539 377.468 286.085 379.577 288.276C382.615 291.434 384.352 295.687 384.352 300.198C384.352 307.995 379.266 314.697 372.073 316.566C370.771 316.888 369.469 317.081 368.166 317.081H345.532C341.749 317.081 338.338 315.084 336.416 311.668C334.494 308.317 334.37 304.258 336.168 300.842C336.478 300.262 336.788 299.747 337.098 299.167C342.803 289.372 353.47 283.314 364.88 283.314H368.104V283.314Z" fill="#3F3D56"/>
<path d="M360.725 300.198C360.725 307.029 363.578 313.15 368.104 317.404H368.167C377.282 317.404 384.724 309.735 384.724 300.198C384.724 295.429 382.863 291.176 379.887 288.083C376.91 284.99 372.755 283.057 368.229 283.057H368.167C363.516 287.245 360.725 293.367 360.725 300.198Z" fill="#3F3D56"/>
<path d="M365.251 300.198C365.251 306.771 367.855 312.635 372.072 316.888C379.266 315.019 384.599 308.253 384.599 300.198C384.599 295.43 382.739 291.176 379.762 288.083C377.654 285.892 375.049 284.346 372.072 283.572C367.855 287.697 365.251 293.625 365.251 300.198Z" fill="#FEFEFE"/>
<path d="M372.011 317.21L372.197 317.146C379.701 315.213 384.972 308.253 384.972 300.134C384.972 295.429 383.236 291.047 380.011 287.761C377.841 285.505 375.112 283.894 372.197 283.121L372.011 283.057L371.887 283.186C367.422 287.632 364.942 293.625 364.942 300.069C364.942 306.513 367.422 312.506 371.887 316.952L372.011 317.21ZM372.197 283.894C374.988 284.668 377.53 286.15 379.577 288.276C382.615 291.434 384.352 295.687 384.352 300.198C384.352 307.931 379.391 314.568 372.197 316.501C367.919 312.184 365.562 306.384 365.562 300.198C365.562 293.947 367.919 288.212 372.197 283.894Z" fill="#3F3D56"/>
<path d="M323.208 301.68H335.424V306.9H323.208V301.68Z" fill="#FFD078"/>
<path d="M322.96 307.286H335.796V301.422H322.96V307.286ZM335.114 306.642H323.518V302.067H335.114V306.642Z" fill="#3F3D56"/>
<path d="M340.013 299.94H335.114C332.82 299.94 331.021 301.873 331.021 304.193C331.021 306.578 332.882 308.446 335.114 308.446H340.013C342.307 308.446 344.106 306.513 344.106 304.193C344.106 301.873 342.307 299.94 340.013 299.94Z" fill="#3F3D56"/>
<path d="M325.564 304.258C325.564 306.642 323.704 308.511 321.471 308.511H308.077C305.782 308.511 303.984 306.578 303.984 304.258C303.984 301.873 305.844 300.005 308.077 300.005H321.471C323.704 299.94 325.564 301.873 325.564 304.258Z" fill="#3F3D56"/>
<path d="M104.242 487.978H164.766V491.586H104.242V487.978Z" fill="white"/>
<path d="M103.932 491.909H165.076V487.656H103.932V491.909ZM164.456 491.264H104.552V488.3H164.456V491.264Z" fill="black"/>
<path d="M104.242 478.441H164.766V482.049H104.242V478.441Z" fill="white"/>
<path d="M103.932 482.371H165.076V478.118H103.932V482.371ZM164.456 481.727H104.552V478.763H164.456V481.727Z" fill="black"/>
<path d="M104.242 468.968H164.766V472.576H104.242V468.968Z" fill="white"/>
<path d="M103.932 472.899H165.076V468.646H103.932V472.899ZM164.456 472.254H104.552V469.29H164.456V472.254Z" fill="black"/>
<path d="M196.393 550.356H323.518V551.645H196.393V550.356Z" fill="#3F3D56"/>
<path d="M444.016 577.003H842V578H444.016V577.003Z" fill="#3F3D56"/>
<path d="M534.685 576.87H583.175C583.175 576.87 580.115 566.019 558.631 557.102L558.697 554.614L558.897 541.135H535.949L535.55 553.024L534.685 576.87Z" fill="#3F3D56"/>
<path d="M534.286 577.216H583.574L583.441 576.801C583.308 576.386 580.115 565.742 558.897 556.895L559.097 540.859H535.484L534.286 577.216ZM582.709 576.525H535.018L536.215 541.481H558.498L558.298 557.309L558.498 557.379C577.122 565.189 581.845 574.451 582.709 576.525Z" fill="#3F3D56"/>
<path d="M471.495 576.87H519.985C519.985 576.87 516.925 566.019 495.441 557.102L495.641 555.443L497.503 541.135H474.555L473.491 553.577L471.495 576.87Z" fill="#3F3D56"/>
<path d="M471.097 577.216H520.451L520.318 576.801C520.185 576.387 516.992 565.742 495.774 556.895L497.836 540.79H474.223L471.097 577.216ZM519.52 576.525H471.828L474.821 541.481H497.104L495.042 557.309L495.308 557.379C513.999 565.189 518.655 574.451 519.52 576.525Z" fill="#3F3D56"/>
<path d="M757.91 576.87H806.4L803.274 551.642L802.01 541.135H779.062L781.789 554.061L782.454 559.867C759.906 567.055 757.91 576.87 757.91 576.87Z" fill="#3F3D56"/>
<path d="M757.511 577.216H806.799L802.342 540.79H778.663L781.523 554.13L782.122 559.59C759.906 566.71 757.644 576.387 757.578 576.801L757.511 577.216ZM806.067 576.525H758.376C759.108 574.589 763.165 566.364 782.588 560.212L782.854 560.143L782.188 554.061L779.528 541.55H801.744L806.067 576.525Z" fill="#3F3D56"/>
<path d="M702.038 576.87H750.527L749.33 552.056L748.798 541.135H725.85L726.449 554.406L726.582 559.107C705.097 568.092 702.038 576.87 702.038 576.87Z" fill="#3F3D56"/>
<path d="M701.572 577.216H750.926L749.13 540.79H725.517L726.182 554.476L726.315 558.968C705.097 567.816 701.904 576.456 701.771 576.801L701.572 577.216ZM750.194 576.525H702.569C703.567 574.589 708.489 567.055 726.715 559.452L726.914 559.383L726.781 554.406L726.182 541.481H748.465L750.194 576.525Z" fill="#3F3D56"/>
<path d="M572.799 81.6952L539.075 73.8156L535.417 87.1557C534.486 86.4645 533.554 86.0498 532.69 86.0498C528.699 86.0498 527.901 91.0264 527.901 91.0264C526.77 96.4178 530.162 99.7355 531.692 102.086L520.118 140.585L548.786 145.216L551.247 120.61C575.924 133.535 572.799 81.6952 572.799 81.6952Z" fill="#FFAC71"/>
<path d="M549.119 145.493L551.58 121.024C556.435 123.444 560.626 123.582 563.952 121.301C574.993 113.698 573.264 82.9394 573.197 81.6261V81.3496L538.876 73.3317L535.284 86.4645C534.419 85.8424 533.554 85.5659 532.756 85.5659C528.566 85.5659 527.634 90.7499 527.634 90.8191C526.637 95.5192 528.965 98.6296 530.628 100.911C530.894 101.256 531.16 101.602 531.359 101.947L519.719 140.655L549.119 145.493ZM550.981 119.988L548.52 144.733L520.584 140.171L532.091 101.947L532.024 101.809C531.758 101.464 531.492 101.049 531.16 100.634C529.564 98.4223 527.368 95.4501 528.3 91.0955C528.366 90.8882 529.098 86.3954 532.756 86.3954C533.554 86.3954 534.419 86.741 535.284 87.4322L535.683 87.7087L539.408 74.2303L572.599 81.9717C572.732 85.013 573.863 113.767 563.619 120.748C560.426 122.96 556.303 122.752 551.514 120.264L550.981 119.988Z" fill="#3F3D56"/>
<path d="M582.909 66.6271C581.379 66.2815 577.521 66.6271 575.193 68.6316C575.326 68.3551 575.459 68.0787 575.592 67.8022C579.051 57.0195 564.484 65.0374 556.769 66.6271C555.172 66.9727 551.647 67.4566 551.647 67.4566C528.566 61.9961 530.894 86.4646 530.894 86.4646C536.947 85.566 538.743 94.1369 538.743 94.1369C544.929 91.0956 546.858 86.741 547.057 84.8748C553.044 87.7087 568.409 93.1001 581.113 83.5615C589.827 76.9951 586.767 67.3875 582.909 66.6271Z" fill="#2F2E41"/>
<path d="M716.87 169.132C716.87 169.132 726.249 150.953 727.047 141.899L723.123 121.992C723.123 121.992 722.657 102.915 746.802 107.546C746.802 107.546 746.669 98.5606 752.39 96.4178C752.39 96.4178 749.596 101.464 750.594 106.44C750.594 106.44 755.25 95.381 764.03 101.187C764.03 101.187 770.814 105.058 769.019 112.108C769.019 112.108 769.151 120.126 758.576 120.264C758.576 120.264 758.708 130.287 782.055 143.903C782.055 143.903 801.478 153.58 799.882 174.662C798.285 195.743 780.193 209.014 780.193 209.014L713.678 209.083L716.87 169.132Z" fill="#2F2E41"/>
<path d="M753.786 176.873L750.926 142.106C750.926 142.106 755.915 139.065 754.651 133.121C754.651 133.121 753.454 128.351 748.864 132.015L748.732 123.582C748.732 123.582 732.635 129.872 723.256 120.402C723.256 120.402 716.472 153.304 730.772 153.234L727.713 180.882L753.786 176.873Z" fill="#FFAC71"/>
<path d="M727.38 181.297L754.185 177.219L751.325 142.313C752.257 141.691 756.181 138.581 755.05 133.051C755.05 132.982 754.518 130.978 752.922 130.425C751.858 130.079 750.66 130.356 749.263 131.323L749.13 123.098L748.665 123.236C748.532 123.305 732.701 129.319 723.522 120.126L723.123 119.711L722.99 120.333C722.79 121.232 718.467 142.659 724.719 150.608C726.183 152.474 728.112 153.442 730.44 153.511L727.38 181.297ZM753.454 176.597L728.178 180.468L731.238 152.889H730.839C728.511 152.889 726.648 151.99 725.251 150.193C719.797 143.212 722.923 124.688 723.588 121.094C732.169 129.112 745.871 124.964 748.532 124.066L748.665 132.706L749.197 132.291C750.594 131.185 751.791 130.77 752.722 131.116C753.986 131.531 754.451 133.259 754.451 133.259C755.649 138.927 751.059 141.76 750.86 141.899L750.66 142.037V142.244L753.454 176.597Z" fill="#2F2E41"/>
<path d="M535.483 553.093L558.631 554.614L558.83 541.135H535.883L535.483 553.093Z" fill="#3F3D56"/>
<path d="M473.491 553.577L495.641 555.443L497.503 541.135H474.556L473.491 553.577Z" fill="#3F3D56"/>
<path d="M506.55 262.997L507.481 268.25L513.135 300.667L527.768 384.026L528.633 411.535L533.089 549.361H571.801L576.125 384.855L570.005 293.133L567.943 262.997H506.55Z" fill="#CDCBCC"/>
<path d="M532.756 549.706H572.134V549.361L576.457 384.855L568.275 262.651H506.15L527.435 384.095L532.756 549.706ZM571.468 549.015H533.355L528.034 384.026L506.882 263.342H567.544L575.792 384.924L571.468 549.015Z" fill="#3F3D56"/>
<path d="M779.062 541.135L781.856 554.061L803.34 551.641L802.01 541.135H779.062Z" fill="#3F3D56"/>
<path d="M725.85 541.135L726.449 554.475L749.33 552.056L748.798 541.135H725.85Z" fill="#3F3D56"/>
<path d="M467.173 550.052H506.284L528.633 411.535L533.621 380.501L542.135 300.46L545.528 268.25H482.006L482.272 293.686L483.203 377.598L467.173 550.052Z" fill="#CDCBCC"/>
<path d="M466.84 550.397H506.616L506.682 550.121L534.02 380.57L545.993 267.904H481.739L482.937 377.598L466.84 550.397ZM506.017 549.706H467.572L483.535 377.667L482.338 268.595H545.195L533.288 380.432L506.017 549.706Z" fill="#3F3D56"/>
<path d="M707.359 363.774L717.602 549.361H752.988L751.791 431.719L751.06 364.603L756.181 302.395L758.177 277.581L728.511 277.097L711.749 276.752L710.352 304.607L707.359 363.774Z" fill="#3F3D56"/>
<path d="M717.336 549.706H753.321V549.361L751.392 364.603L758.576 277.236L711.483 276.406L707.026 363.774L717.336 549.706ZM752.656 549.015H717.935L707.692 363.774L712.082 277.097L757.844 277.927L750.727 364.603L752.656 549.015Z" fill="#3F3D56"/>
<path d="M482.005 268.25L482.271 293.686C493.313 297.488 503.689 299.7 513.134 300.667C523.976 301.842 533.754 301.497 542.135 300.391C554.706 298.801 564.284 295.483 569.938 293.064L567.943 262.928H506.549L507.481 268.181H482.005V268.25Z" fill="#3F3D56"/>
<path d="M728.112 274.194L728.511 277.097L732.302 305.782L742.346 381.399L751.791 431.718L773.608 548.255L806.001 548.946L791.101 377.736L786.978 288.295L786.246 272.535L728.112 274.194Z" fill="#3F3D56"/>
<path d="M806.4 549.291V548.877L791.501 377.667L786.578 272.121L727.779 273.78L742.013 381.468L773.342 548.6L806.4 549.291ZM785.913 272.881L790.769 377.736L805.668 548.531L773.874 547.84L742.678 381.261L728.511 274.471L785.913 272.881Z" fill="#3F3D56"/>
<path d="M714.542 174.109L688.735 209.014L652.683 216.341V243.298L694.92 239.15C697.847 238.874 700.574 237.768 702.969 236.04L719.864 223.598L714.542 174.109Z" fill="#CDCBCC"/>
<path d="M652.351 243.712L694.987 239.496C697.914 239.219 700.774 238.114 703.235 236.316L720.329 223.737L714.875 173.21L688.601 208.668L652.417 216.064V243.712H652.351ZM719.598 223.46L702.836 235.833C700.508 237.561 697.781 238.597 694.92 238.874L653.016 243.021V216.686L688.934 209.36L689.001 209.291L714.343 175.076L719.598 223.46Z" fill="#3F3D56"/>
<path d="M550.45 136.369C550.45 136.369 545.461 148.603 523.045 124.48L484.6 139.203C479.146 141.691 475.288 146.875 474.29 152.958L468.237 188.485H489.256L479.545 283.456C479.545 283.456 507.88 291.267 529.564 291.751C565.349 292.58 573.264 285.945 573.264 285.945L571.668 252.214L571.402 175.491C571.801 164.57 567.411 156.345 561.159 147.497L550.45 136.369Z" fill="#FFD078"/>
<path d="M535.55 292.165C565.948 292.165 573.131 286.428 573.397 286.221L573.53 286.083L571.934 252.145L571.668 175.422C572.067 164.708 567.81 156.345 561.358 147.221L550.317 135.747L550.117 136.231C550.051 136.3 549.119 138.443 546.326 138.996C542.667 139.687 535.75 137.682 523.245 124.204L523.112 124.066L522.912 124.135L484.466 138.857C478.879 141.415 474.955 146.668 473.957 152.889L467.838 188.831H488.857L479.145 283.733L479.411 283.802C479.677 283.871 508.013 291.612 529.497 292.165C531.559 292.165 533.621 292.165 535.55 292.165ZM572.865 285.737C571.668 286.567 562.289 292.165 529.497 291.405C509.277 290.921 482.87 283.94 479.877 283.18L489.588 188.071H468.636L474.622 152.958C475.62 146.944 479.345 141.899 484.732 139.479L522.979 124.895C535.617 138.443 542.801 140.447 546.525 139.687C548.92 139.203 550.117 137.682 550.583 136.922L560.959 147.636C567.477 156.898 571.468 164.846 571.069 175.422L571.335 252.145L572.865 285.737Z" fill="#3F3D56"/>
<path d="M573.397 172.035H679.489V257.882H573.397V172.035Z" fill="#3F3D56"/>
<path d="M555.105 172.035H652.151V257.882H555.105V172.035Z" fill="#FEFEFE"/>
<path d="M554.773 258.228H652.484V171.689H554.773V258.228ZM651.818 257.536H555.438V172.381H651.818V257.536Z" fill="#3F3D56"/>
<path d="M588.363 172.035V193.462L594.416 190.006L599.072 193.255L604.659 190.006L609.847 193.462V172.035H588.363Z" fill="#3F3D56"/>
<path d="M609.781 214.198H632.197V215.581H609.781V214.198Z" fill="#3F3D56"/>
<path d="M609.781 223.253H632.197V224.635H609.781V223.253Z" fill="#3F3D56"/>
<path d="M609.781 232.308H632.197V233.69H609.781V232.308Z" fill="#3F3D56"/>
<path d="M567.078 212.332H603.329V235.833H567.078V212.332Z" fill="#FEFEFE"/>
<path d="M566.746 236.178H603.662V211.986H566.746V236.178ZM602.996 235.487H567.411V212.678H602.996V235.487Z" fill="#3F3D56"/>
<path d="M710.352 304.607C715.939 305.436 723.588 306.128 732.302 305.782C739.619 305.506 747.733 304.538 756.114 302.395C766.291 299.769 776.867 295.345 786.911 288.295L786.179 272.535L728.112 274.194L728.51 277.097L711.749 276.821L710.352 304.607Z" fill="#3F3D56"/>
<path d="M652.351 260.716C652.949 261.753 653.748 262.582 654.679 263.273C655.61 263.964 656.674 264.448 657.805 264.656L663.06 265.9C666.452 266.66 669.911 267.075 673.37 267.075H677.959C679.289 267.075 680.62 266.729 681.751 266.038L686.673 263.204L691.861 262.582L711.15 260.163V244.749L694.92 247.376L687.404 248.62L671.108 243.92C671.108 243.92 668.248 250.071 677.161 253.182L668.514 257.605H654.014C652.484 257.467 651.486 259.333 652.351 260.716Z" fill="#E78D4C"/>
<path d="M673.436 267.351H678.025C679.422 267.351 680.819 267.006 682.016 266.245L686.872 263.481L711.549 260.37V244.265L687.471 248.205L670.975 243.436L670.842 243.712C670.775 243.781 669.778 245.993 670.842 248.482C671.64 250.486 673.502 252.076 676.363 253.182L668.514 257.191H654.08C653.215 257.191 652.417 257.675 652.018 258.435C651.619 259.195 651.619 260.163 652.085 260.923C652.75 261.96 653.548 262.859 654.479 263.55C655.477 264.241 656.541 264.725 657.672 265.001L662.927 266.245C666.452 267.006 669.911 267.351 673.436 267.351ZM710.884 259.817L686.606 262.859L681.684 265.692C680.553 266.315 679.289 266.66 678.025 266.66H673.436C669.977 266.66 666.518 266.245 663.193 265.485L657.938 264.241C656.874 263.964 655.876 263.55 654.945 262.859C654.08 262.236 653.282 261.407 652.683 260.439C652.351 259.886 652.351 259.195 652.617 258.642C652.883 258.089 653.481 257.744 654.08 257.744H668.647L678.092 252.905L677.294 252.629C674.234 251.592 672.239 250.002 671.441 248.067C670.709 246.339 671.108 244.749 671.374 244.127L687.471 248.758L710.884 244.956V259.817Z" fill="#3F3D56"/>
<path d="M587.166 119.227H652.95V172.45H587.166V119.227Z" fill="#3F3D56"/>
<path d="M575.858 119.227H635.988V172.45H575.858V119.227Z" fill="#FFD078"/>
<path d="M575.526 172.795H636.321V118.882H575.526V172.795ZM635.656 172.104H576.191V119.573H635.656V172.104Z" fill="#3F3D56"/>
<path d="M596.412 119.227V132.498L600.203 130.356L603.129 132.36L606.588 130.356L609.781 132.498V119.227H596.412Z" fill="#3F3D56"/>
<path d="M609.715 145.078H623.616V146.461H609.715V145.078Z" fill="#3F3D56"/>
<path d="M609.715 150.677H623.616V152.059H609.715V150.677Z" fill="#3F3D56"/>
<path d="M609.715 156.345H623.616V157.727H609.715V156.345Z" fill="#3F3D56"/>
<path d="M583.242 144.18H605.724V158.764H583.242V144.18Z" fill="#FEFEFE"/>
<path d="M582.909 159.11H606.056V143.834H582.909V159.11ZM605.391 158.418H583.574V144.525H605.391V158.418Z" fill="#3F3D56"/>
<path d="M691.927 262.513L711.217 260.094V244.68L694.987 247.307L691.927 262.513Z" fill="#3F3D56"/>
<path d="M697.781 245.786L709.953 243.367L711.949 181.297C712.082 177.357 713.811 173.625 716.738 171.067L729.176 160.285C729.176 160.285 731.571 176.113 754.784 160.285L776.269 168.303C782.322 170.584 786.911 175.906 788.375 182.403L801.944 250.901C803.208 257.26 798.684 263.273 792.432 263.481L785.98 263.688L789.106 285.53C789.106 285.53 766.957 295.414 744.208 296.866C718.002 298.594 709.421 292.096 709.754 291.198L711.084 267.974L697.781 268.526V245.786V245.786Z" fill="#CDCBCC"/>
<path d="M735.694 297.626C738.288 297.626 741.149 297.557 744.208 297.349C766.757 295.898 788.973 286.083 789.239 285.945L789.505 285.806L789.439 285.53L786.379 264.103L792.498 263.895C795.558 263.757 798.418 262.306 800.347 259.748C802.276 257.26 803.008 254.011 802.342 250.901L788.773 182.403C787.244 175.698 782.654 170.376 776.402 168.026L754.784 159.939L754.651 160.008C745.672 166.16 738.555 168.302 734.032 166.229C730.24 164.501 729.575 160.285 729.575 160.285L729.508 159.662L716.671 170.86C713.678 173.486 711.882 177.288 711.749 181.366L709.753 243.159L697.581 245.579V269.079L710.884 268.526L709.554 291.336C709.487 291.543 709.554 291.682 709.687 291.889C710.485 293.202 717.469 297.626 735.694 297.626ZM788.707 285.392C786.246 286.428 765.36 295.207 744.142 296.589C719.065 298.248 710.485 292.304 710.086 291.336V291.267L711.416 267.628L698.047 268.181V245.993L710.219 243.574L712.214 181.228C712.347 177.357 714.077 173.763 716.87 171.275L728.843 160.838C729.176 162.151 730.307 165.261 733.566 166.713C738.355 168.925 745.406 166.851 754.718 160.561L776.069 168.51C782.055 170.722 786.512 175.906 787.975 182.403L801.544 250.901C802.143 253.804 801.411 256.845 799.682 259.195C797.886 261.545 795.225 262.928 792.365 263.066L785.514 263.273L788.707 285.392Z" fill="#3F3D56"/>
<path d="M785.924 263.298L785.962 263.988L710.522 268.488L710.484 267.798L785.924 263.298Z" fill="#3F3D56"/>
<path d="M709.687 243.712L767.089 231.409L761.901 201.688L761.236 201.826L766.358 230.856L709.554 243.09L709.687 243.712Z" fill="#3F3D56"/>
<path d="M465.11 232.169C464.511 239.151 468.702 245.648 475.154 247.721L543.133 269.702L549.584 272.052C552.046 272.95 554.706 273.227 557.3 272.881L570.337 271.222C571.136 271.084 572 270.877 572.732 270.6L587.964 264.794C589.893 264.034 591.622 262.651 592.753 260.854L592.952 260.509C593.751 259.264 592.886 257.606 591.423 257.606H566.945C574.062 252.905 573.53 248.758 573.53 248.758L558.498 250.901L547.523 252.283L495.707 226.018L501.693 194.983L502.891 188.693H468.436L468.103 192.356L465.11 232.169Z" fill="#FFAC71"/>
<path d="M555.238 273.365C555.97 273.365 556.702 273.296 557.367 273.227L570.404 271.568C571.268 271.429 572.133 271.222 572.865 270.946L588.097 265.14C590.159 264.379 591.822 262.997 593.019 261.062L593.218 260.716C593.684 260.025 593.684 259.126 593.285 258.435C592.886 257.675 592.221 257.26 591.356 257.26H568.009C574.262 252.767 573.863 248.896 573.796 248.689L573.73 248.343L558.364 250.486L547.456 251.799L495.973 225.741L503.223 188.209H468.103L464.511 232.1C463.913 239.289 468.17 245.855 474.821 247.998L542.8 269.978L549.252 272.328C551.314 273.019 553.309 273.365 555.238 273.365ZM591.556 257.951C592.088 257.951 592.62 258.228 592.886 258.781C593.152 259.264 593.152 259.886 592.819 260.37L592.62 260.716C591.489 262.444 589.893 263.757 588.03 264.517L572.798 270.324C572.067 270.6 571.269 270.807 570.47 270.946L557.433 272.605C554.906 272.95 552.245 272.674 549.851 271.775L543.399 269.425L475.42 247.445C469.101 245.371 465.044 239.15 465.576 232.238L469.101 188.969H502.824L495.641 226.156L495.84 226.294L547.722 252.56L558.83 251.177L573.464 249.104C573.397 250.141 572.665 253.527 567.011 257.26L566.08 257.882H591.556V257.951Z" fill="#3F3D56"/>
<path d="M506.07 173.711L506.717 173.873L503.037 189.802L502.391 189.641L506.07 173.711Z" fill="#3F3D56"/>
<path d="M468.37 192.218L501.827 194.914L503.091 188.555H468.636L468.37 192.218Z" fill="#3F3D56"/>
<path d="M647.587 373.828C645.839 373.827 644.108 374.185 642.492 374.88C640.877 375.574 639.409 376.593 638.172 377.878C636.936 379.162 635.955 380.687 635.285 382.366C634.616 384.044 634.271 385.844 634.27 387.661C634.27 383.991 632.867 380.471 630.371 377.876C627.874 375.281 624.488 373.823 620.958 373.823C624.488 373.823 627.874 372.366 630.371 369.771C632.867 367.176 634.27 363.656 634.27 359.986C634.27 363.656 635.673 367.176 638.169 369.771C640.666 372.366 644.052 373.823 647.583 373.823L647.587 373.828Z" fill="#555185"/>
<path d="M682.854 461.272C685.853 461.272 688.285 458.745 688.285 455.627C688.285 452.51 685.853 449.982 682.854 449.982C679.854 449.982 677.423 452.51 677.423 455.627C677.423 458.745 679.854 461.272 682.854 461.272Z" fill="#FFD078"/>
<path d="M460.008 396.956C463.007 396.956 465.439 394.428 465.439 391.311C465.439 388.193 463.007 385.666 460.008 385.666C457.009 385.666 454.577 388.193 454.577 391.311C454.577 394.428 457.009 396.956 460.008 396.956Z" fill="#FFD078"/>
<path d="M645.566 304.9C649.399 304.9 652.505 301.671 652.505 297.687C652.505 293.704 649.399 290.475 645.566 290.475C641.734 290.475 638.627 293.704 638.627 297.687C638.627 301.671 641.734 304.9 645.566 304.9Z" fill="#FFD078"/>
<path d="M265.417 455.27C262.522 455.27 259.746 456.466 257.699 458.593C255.651 460.721 254.501 463.607 254.501 466.616V466.616C254.501 463.607 253.351 460.721 251.304 458.593C249.257 456.466 246.481 455.27 243.586 455.27V455.27C246.481 455.27 249.257 454.075 251.304 451.947C253.351 449.819 254.501 446.933 254.501 443.924V443.924C254.501 446.933 255.651 449.819 257.699 451.947C259.746 454.075 262.522 455.27 265.417 455.27V455.27Z" fill="#555185"/>
<path d="M329.245 447.822C331.245 447.822 332.867 446.137 332.867 444.057C332.867 441.978 331.245 440.292 329.245 440.292C327.245 440.292 325.623 441.978 325.623 444.057C325.623 446.137 327.245 447.822 329.245 447.822Z" fill="#FFD078"/>
<path d="M431.765 258.413C430.017 258.413 428.286 258.77 426.67 259.465C425.055 260.16 423.587 261.179 422.35 262.463C421.114 263.747 420.133 265.273 419.463 266.951C418.794 268.63 418.449 270.429 418.448 272.246C418.448 268.576 417.045 265.057 414.549 262.462C412.052 259.867 408.666 258.409 405.135 258.409C408.666 258.409 412.052 256.951 414.549 254.356C417.045 251.761 418.448 248.241 418.448 244.571C418.448 248.241 419.851 251.761 422.347 254.356C424.844 256.951 428.23 258.409 431.761 258.409L431.765 258.413Z" fill="#555185"/>
<path d="M383.386 152.268C389.113 151.31 394.974 152.732 399.704 156.231C404.436 159.73 407.657 165.028 408.666 170.982L408.764 171.559L409.319 171.371C410.616 170.935 411.971 170.713 413.333 170.712V170.212L413.35 170.712C415.098 170.655 416.841 170.963 418.473 171.619C420.105 172.276 421.596 173.266 422.855 174.534C424.114 175.803 425.115 177.322 425.8 179.003C426.485 180.684 426.838 182.491 426.838 184.318C426.838 186.144 426.485 187.951 425.8 189.632C425.115 191.313 424.114 192.832 422.855 194.1C421.596 195.368 420.105 196.36 418.473 197.016C416.841 197.672 415.098 197.98 413.35 197.923H358.002C356.37 197.933 354.757 197.538 353.299 196.769C351.841 196 350.579 194.879 349.62 193.497C348.66 192.116 348.03 190.515 347.785 188.827C347.539 187.14 347.686 185.416 348.211 183.799C348.736 182.183 349.625 180.722 350.801 179.537C351.977 178.353 353.407 177.479 354.97 176.987C356.534 176.495 358.187 176.399 359.793 176.705C361.4 177.012 362.914 177.713 364.209 178.752L365.193 179.54L365.018 178.293C364.179 172.31 365.64 166.226 369.079 161.357C372.519 156.488 377.659 153.226 383.386 152.268Z" fill="white" stroke="black"/>
<path d="M425.593 576.561C427.594 576.561 429.215 574.875 429.215 572.796C429.215 570.717 427.594 569.031 425.593 569.031C423.593 569.031 421.971 570.717 421.971 572.796C421.971 574.875 423.593 576.561 425.593 576.561Z" fill="#FFD078"/>
<path d="M654.562 0.705078C658.541 0.0375643 662.614 1.0169 665.909 3.43848C669.204 5.86063 671.459 9.53414 672.182 13.6719L672.282 14.2422L672.832 14.0596C673.73 13.7625 674.668 13.6145 675.61 13.6191C677.941 13.7128 680.152 14.7398 681.777 16.4922C683.406 18.2488 684.32 20.5975 684.321 23.0449C684.322 25.4923 683.411 27.8415 681.783 29.5996C680.159 31.3535 677.95 32.3825 675.619 32.4785H636.67C635.551 32.4785 634.447 32.2018 633.45 31.6699C632.453 31.138 631.589 30.3661 630.933 29.416C630.277 28.4659 629.847 27.3655 629.68 26.2061C629.514 25.0465 629.615 23.8621 629.975 22.752C630.336 21.6418 630.945 20.6382 631.751 19.8242C632.556 19.0104 633.536 18.409 634.606 18.0684C635.677 17.7278 636.809 17.6575 637.911 17.8623C639.012 18.0672 640.053 18.5419 640.946 19.249L641.919 20.0195L641.752 18.79C641.186 14.6255 642.214 10.3979 644.612 7.0166C647.01 3.63586 650.583 1.37268 654.562 0.705078Z" fill="white" stroke="black"/>
</svg>
